<?xml version="1.0" encoding="utf-8"?>
<!-- Generator: Adobe Illustrator 26.3.1, SVG Export Plug-In . SVG Version: 6.00 Build 0)  -->
<svg version="1.1" id="Layer_1" xmlns="http://www.w3.org/2000/svg" xmlns:xlink="http://www.w3.org/1999/xlink" x="0px" y="0px"
	 viewBox="0 0 1920 1080" style="enable-background:new 0 0 1920 1080;" xml:space="preserve">
<style type="text/css">
	.st0{fill:#05345E;}
	.st1{fill:#FFFFFF;}
	.st2{fill:#FE5100;}
</style>
<g>
	<polygon class="st0" points="297.6,623.87 200.43,623.87 150.8,540 200.43,456.13 297.6,456.13 347.22,540 	"/>
	<g>
		<path class="st1" d="M252.96,588.92h-7.9c-24.36,0-44.17-19.82-44.17-44.17c0-21.04,14.79-38.69,34.51-43.11v-22.67h19.54v41.14
			h-9.77c-13.69,0-24.74,11.05-24.74,24.64c0,13.58,11.05,24.64,24.64,24.64h7.9c13.58,0,24.64-11.05,24.64-24.64v-10.15h19.54
			v10.15C297.13,569.1,277.32,588.92,252.96,588.92z"/>
	</g>
	<g>
		<g>
			<path class="st0" d="M413.56,606.53l21.12-106h-42.03l7.59-37.52h132.45l-7.58,37.52h-42.03l-21.12,106H413.56z"/>
			<path class="st0" d="M557.49,606.53l28.7-143.52h64.38c19,0,33.69,4.14,44.08,12.4c10.39,8.27,15.58,19.86,15.58,34.75
				c0,12.03-2.97,22.55-8.92,31.57c-5.95,9.02-14.35,16.06-25.22,21.12c-10.87,5.06-23.68,7.59-38.44,7.59h-46.34l25.83-20.3
				l-11.28,56.38H557.49z M615.92,555.89l-17.02-21.94h41.21c6.69,0,11.89-1.67,15.58-5.02c3.69-3.35,5.54-8.03,5.54-14.04
				c0-5.19-1.61-8.92-4.82-11.17c-3.21-2.25-7.62-3.38-13.22-3.38h-37.52l25.83-22.55L615.92,555.89z M645.24,606.53l-29.52-52.28
				h49.82l29.93,52.28H645.24z"/>
			<path class="st0" d="M735.65,606.53l91.44-143.52h47.57l34.03,143.52h-48.18l-23.17-121.17h18.86L786.7,606.53H735.65z
				 M777.89,581.52l19.27-34.86h66.02l5.33,34.86H777.89z"/>
			<path class="st0" d="M957.49,606.53l28.7-143.52h39.78l53.92,87.34h-16.81l17.43-87.34h47.16l-28.7,143.52h-39.78l-53.92-87.34
				h16.81l-17.43,87.34H957.49z"/>
			<path class="st0" d="M1244.94,609.81c-14.76,0-27.68-2.7-38.75-8.1c-11.07-5.4-19.65-12.92-25.73-22.55
				c-6.08-9.64-9.12-20.81-9.12-33.52c0-12.57,2.22-24.12,6.66-34.65c4.44-10.52,10.69-19.61,18.76-27.27
				c8.06-7.65,17.63-13.56,28.7-17.73c11.07-4.17,23.23-6.25,36.5-6.25c13.8,0,26.04,2.46,36.7,7.38
				c10.66,4.92,18.59,12.03,23.78,21.32l-34.86,27.27c-3.01-5.33-6.9-9.46-11.69-12.4c-4.79-2.94-10.46-4.41-17.02-4.41
				c-5.74,0-10.97,1.06-15.68,3.18c-4.71,2.12-8.78,5.13-12.2,9.02c-3.42,3.89-6.08,8.51-8,13.84c-1.92,5.33-2.87,11.21-2.87,17.63
				c0,5.61,1.23,10.53,3.69,14.76c2.46,4.24,5.91,7.52,10.35,9.84c4.44,2.33,9.6,3.49,15.48,3.49c5.6,0,11.1-1.3,16.5-3.89
				c5.4-2.6,10.56-6.84,15.48-12.71l28.5,27.27c-8.75,10.66-18.49,18.08-29.22,22.25C1270.19,607.73,1258.2,609.81,1244.94,609.81z"
				/>
			<path class="st0" d="M1434.59,609.81c-14.9,0-27.78-2.74-38.65-8.2c-10.87-5.47-19.27-13.02-25.22-22.66
				c-5.94-9.64-8.92-20.74-8.92-33.32c0-12.71,2.22-24.29,6.66-34.75c4.44-10.46,10.69-19.51,18.76-27.17
				c8.06-7.65,17.63-13.56,28.7-17.73c11.07-4.17,23.17-6.25,36.29-6.25c14.9,0,27.78,2.74,38.65,8.2
				c10.87,5.47,19.27,13.02,25.22,22.66c5.95,9.64,8.92,20.74,8.92,33.32c0,12.71-2.22,24.3-6.66,34.76
				c-4.44,10.46-10.7,19.51-18.76,27.17c-8.07,7.66-17.63,13.57-28.7,17.73C1459.81,607.73,1447.71,609.81,1434.59,609.81z
				 M1438.69,570.65c6.01,0,11.31-1.16,15.89-3.49c4.58-2.32,8.51-5.53,11.79-9.64c3.28-4.1,5.74-8.78,7.38-14.04
				c1.64-5.26,2.46-10.83,2.46-16.71c0-5.6-1.13-10.49-3.38-14.66c-2.26-4.17-5.47-7.41-9.64-9.74c-4.17-2.32-9.19-3.48-15.07-3.48
				c-5.88,0-11.14,1.16-15.79,3.48c-4.65,2.33-8.61,5.54-11.89,9.64c-3.28,4.1-5.74,8.78-7.38,14.04
				c-1.64,5.26-2.46,10.83-2.46,16.71c0,5.47,1.13,10.32,3.38,14.56c2.25,4.24,5.46,7.52,9.64,9.84
				C1427.79,569.49,1432.81,570.65,1438.69,570.65z"/>
			<path class="st0" d="M1568.68,606.53l28.7-143.52h39.37l38.34,93.7h-20.91l73.81-93.7h41.21l-28.29,143.52h-44.08l14.97-77.09
				l6.97-0.41l-49.62,64.58h-21.32l-27.88-64.79l8.2,0.62l-15.38,77.09H1568.68z"/>
		</g>
	</g>
</g>
</svg>
